<?xml version="1.0" encoding="UTF-8" standalone="no"?>
<!DOCTYPE svg PUBLIC "-//W3C//DTD SVG 1.1//EN" "http://www.w3.org/Graphics/SVG/1.1/DTD/svg11.dtd">
<!-- Created with Vectornator (http://vectornator.io/) -->
<svg height="100%" stroke-miterlimit="10" style="fill-rule:nonzero;clip-rule:evenodd;stroke-linecap:round;stroke-linejoin:round;" version="1.1" viewBox="0 0 1024 1024" width="100%" xml:space="preserve" xmlns="http://www.w3.org/2000/svg" xmlns:xlink="http://www.w3.org/1999/xlink">
<defs/>
<g id="text">
<path d="M508.499 537.077C531.605 593.791 558.911 641.402 591.119 681.312C640.831 742.227 704.547 788.438 799.77 829.748C810.972 801.741 823.576 781.436 845.981 754.129C781.565 732.424 742.356 712.119 692.644 675.01C724.852 649.804 754.959 622.498 775.264 602.193C786.467 590.99 786.467 590.99 791.368 586.089L721.351 542.678C704.547 565.784 675.14 595.891 639.431 623.198C613.525 591.69 598.121 567.184 584.818 537.077L747.957 537.077C779.465 537.077 804.671 538.477 828.477 541.278L828.477 465.66C809.572 469.16 787.867 469.861 747.957 469.861L545.608 469.861L545.608 425.05L693.344 425.05C733.954 425.05 750.758 425.75 771.063 427.85L771.063 357.833C752.158 359.934 735.354 360.634 693.344 360.634L545.608 360.634L545.608 317.924L726.252 317.924C764.061 317.924 785.766 318.624 804.671 321.425L804.671 247.907C783.666 250.707 759.86 252.108 721.351 252.108L545.608 252.108C545.608 220.6 546.308 209.397 549.809 191.893L463.688 191.893C467.189 208.697 467.889 222 467.889 252.108L303.349 252.108C267.641 252.108 242.435 250.707 221.43 247.907L221.43 321.425C240.334 318.624 261.339 317.924 299.849 317.924L467.889 317.924L467.889 360.634L331.356 360.634C290.746 360.634 273.942 359.934 254.338 357.833L254.338 427.85C274.642 425.75 291.447 425.05 331.356 425.05L467.889 425.05L467.889 469.861L276.043 469.861C234.733 469.861 215.828 469.16 194.823 465.66L194.823 541.278C218.629 538.477 244.535 537.077 276.743 537.077L409.075 537.077C350.261 589.59 276.743 627.399 183.62 652.605C203.925 679.211 214.428 697.416 227.031 727.523C292.847 700.216 329.256 682.012 376.167 650.504L376.167 746.428C332.056 752.029 307.55 754.129 279.544 754.83L296.348 836.75C302.649 835.349 315.952 832.549 329.956 829.748C346.06 827.647 346.06 827.647 362.864 824.847C401.373 818.545 404.174 817.845 451.785 808.743C529.504 792.639 545.608 789.138 598.121 774.434L598.121 700.917C536.506 717.02 507.099 724.022 453.186 733.825L453.186 589.59C481.193 563.683 487.494 557.382 504.298 537.077L508.499 537.077Z" fill="#ffffff" opacity="1" stroke="none"/>
</g>
</svg>
